<svg width="171" height="171" viewBox="0 0 171 171" fill="none" xmlns="http://www.w3.org/2000/svg">
<path d="M119.124 46.0352C119.941 45.6577 120.854 45.5404 121.741 45.6982C122.627 45.8563 123.445 46.2822 124.082 46.9189C124.718 47.5556 125.144 48.3724 125.302 49.2588C125.44 50.0344 125.367 50.8309 125.094 51.5654L124.964 51.877V51.8779L90.7593 129.473C88.7983 133.754 82.2339 132.326 82.2339 127.601V90.501C82.2339 90.0431 82.0528 89.6031 81.729 89.2793C81.4052 88.9555 80.9652 88.7744 80.5073 88.7744H43.3989C38.6732 88.7742 37.2303 82.2632 41.522 80.2939L41.5229 80.2949L119.123 46.0361L119.124 46.0352Z" fill="#3B82F6" stroke="#3B82F6" stroke-width="0.125"/>
<path d="M165.375 85.5C165.375 41.4023 129.598 5.625 85.5 5.625C41.4023 5.625 5.625 41.4023 5.625 85.5C5.625 129.598 41.4023 165.375 85.5 165.375C129.598 165.375 165.375 129.598 165.375 85.5Z" stroke="#3B82F6" stroke-width="10" stroke-miterlimit="10"/>
</svg>
