<svg width="2520" height="600" viewBox="0 0 2520 600" fill="none" xmlns="http://www.w3.org/2000/svg">
<rect x="2" y="2" width="2516" height="596" rx="30" fill="#282F3A"/>
<rect x="2" y="2" width="2516" height="596" rx="30" stroke="#A1E6FF" stroke-width="4"/>
<path d="M759.957 197.8C762.091 196.815 764.475 196.508 766.788 196.92C769.102 197.332 771.234 198.444 772.896 200.105C774.557 201.767 775.669 203.899 776.081 206.213C776.493 208.526 776.186 210.91 775.201 213.044V213.045L686.7 413.812C681.583 424.989 664.453 421.263 664.452 408.931V312.938C664.452 311.779 663.992 310.669 663.173 309.85C662.354 309.031 661.243 308.57 660.085 308.57H564.07C551.737 308.57 547.97 291.578 559.177 286.439L759.956 197.8H759.957Z" fill="#3B82F6" stroke="#3B82F6" stroke-width="0.125"/>
<path d="M879.667 300C879.667 185.902 787.098 93.333 673.001 93.333C558.903 93.333 466.334 185.902 466.334 300C466.334 414.097 558.903 506.666 673.001 506.666C787.098 506.666 879.667 414.097 879.667 300Z" stroke="#3B82F6" stroke-width="10" stroke-miterlimit="10"/>
<path d="M1088.18 225.86V402.5H1049.01V225.86H1088.18ZM1141.43 225.86V256.58H996.018V225.86H1141.43ZM1171.22 276.036L1175.83 301.124L1179.41 304.452V402.5H1141.53V276.036H1171.22ZM1232.92 272.708L1229.33 307.78H1218.84C1212.86 307.78 1206.64 308.633 1200.15 310.34C1193.66 312.047 1185.47 314.607 1175.57 318.02L1173.01 296.772C1181.89 288.921 1190.85 282.948 1199.89 278.852C1208.94 274.756 1217.73 272.708 1226.26 272.708H1232.92ZM1289.43 276.036V402.5H1251.8V276.036H1289.43ZM1278.94 220.228C1286.45 220.228 1290.2 224.068 1290.2 231.748V245.316C1290.2 252.996 1286.45 256.836 1278.94 256.836H1262.55C1255.04 256.836 1251.29 252.996 1251.29 245.316V231.748C1251.29 224.068 1255.04 220.228 1262.55 220.228H1278.94ZM1404.73 272.964C1420.6 272.964 1431.95 278.767 1438.77 290.372C1445.6 301.977 1449.01 318.617 1449.01 340.292C1449.01 357.188 1447.22 370.415 1443.64 379.972C1440.22 389.529 1434.93 396.271 1427.77 400.196C1420.77 403.951 1411.98 405.828 1401.4 405.828C1392.35 405.828 1383.73 404.548 1375.54 401.988C1367.35 399.428 1360.1 395.161 1353.78 389.188L1356.34 372.292C1361.97 373.999 1367.09 375.535 1371.7 376.9C1376.48 378.095 1381.86 378.692 1387.83 378.692C1393.29 378.692 1397.64 377.753 1400.89 375.876C1404.13 373.999 1406.43 370.329 1407.8 364.868C1409.33 359.236 1410.1 351.129 1410.1 340.548C1410.1 330.137 1409.42 322.201 1408.05 316.74C1406.69 311.108 1404.47 307.268 1401.4 305.22C1398.33 303.001 1394.32 301.892 1389.37 301.892C1383.9 301.892 1378.87 303.001 1374.26 305.22C1369.65 307.268 1364.45 310.255 1358.65 314.18L1353.78 296.772C1357.2 292.164 1361.55 288.068 1366.84 284.484C1372.3 280.9 1378.27 278.084 1384.76 276.036C1391.24 273.988 1397.9 272.964 1404.73 272.964ZM1352.25 276.036L1355.83 299.076L1359.41 302.916V385.092L1358.13 388.164C1358.65 393.284 1358.99 398.575 1359.16 404.036C1359.5 409.668 1359.58 415.215 1359.41 420.676V451.14H1321.53V276.036H1352.25ZM1514.96 225.092C1524.01 225.092 1533.22 225.177 1542.61 225.348C1552.17 225.348 1561.47 225.604 1570.51 226.116C1579.73 226.457 1588.26 227.055 1596.11 227.908L1594.07 256.068H1530.07C1525.46 256.068 1521.96 257.177 1519.57 259.396C1517.18 261.615 1515.99 264.857 1515.99 269.124V402.5H1476.82V261.188C1476.82 250.265 1480.32 241.561 1487.31 235.076C1494.31 228.42 1503.53 225.092 1514.96 225.092ZM1481.43 299.844H1584.59V327.492H1481.43V299.844ZM1655.67 223.3L1655.41 362.052C1655.41 366.319 1656.69 369.561 1659.25 371.78C1661.81 373.828 1665.57 374.852 1670.52 374.852H1680.76L1685.11 400.452C1683.06 401.476 1680.16 402.329 1676.41 403.012C1672.65 403.865 1668.81 404.463 1664.89 404.804C1660.96 405.316 1657.63 405.572 1654.9 405.572C1643.47 405.572 1634.42 402.585 1627.77 396.612C1621.11 390.639 1617.78 382.276 1617.78 371.524V223.3H1655.67ZM1761.69 272.708C1777.56 272.708 1790.27 274.927 1799.83 279.364C1809.39 283.631 1816.21 290.628 1820.31 300.356C1824.58 310.084 1826.71 323.14 1826.71 339.524C1826.71 355.567 1824.58 368.452 1820.31 378.18C1816.21 387.908 1809.39 394.905 1799.83 399.172C1790.27 403.439 1777.56 405.572 1761.69 405.572C1745.98 405.572 1733.27 403.439 1723.54 399.172C1713.98 394.905 1707.07 387.908 1702.81 378.18C1698.54 368.452 1696.41 355.567 1696.41 339.524C1696.41 323.14 1698.54 310.084 1702.81 300.356C1707.07 290.628 1713.98 283.631 1723.54 279.364C1733.27 274.927 1745.98 272.708 1761.69 272.708ZM1761.69 300.356C1755.2 300.356 1750.08 301.465 1746.33 303.684C1742.57 305.903 1739.93 309.828 1738.39 315.46C1736.85 321.092 1736.09 329.113 1736.09 339.524C1736.09 349.764 1736.85 357.7 1738.39 363.332C1739.93 368.964 1742.57 372.889 1746.33 375.108C1750.08 377.156 1755.2 378.18 1761.69 378.18C1768.17 378.18 1773.29 377.156 1777.05 375.108C1780.8 372.889 1783.45 368.964 1784.98 363.332C1786.52 357.7 1787.29 349.764 1787.29 339.524C1787.29 329.113 1786.52 321.092 1784.98 315.46C1783.45 309.828 1780.8 305.903 1777.05 303.684C1773.29 301.465 1768.17 300.356 1761.69 300.356ZM2049.42 276.036L2018.19 392.516C2017.51 395.588 2015.97 398.063 2013.58 399.94C2011.19 401.647 2008.37 402.5 2005.13 402.5H1976.46C1973.05 402.5 1970.06 401.476 1967.5 399.428C1964.94 397.209 1963.4 394.393 1962.89 390.98L1949.07 319.812C1948.56 316.228 1948.13 312.729 1947.79 309.316C1947.45 305.732 1946.93 302.148 1946.25 298.564H1943.18C1942.67 302.148 1942.16 305.732 1941.64 309.316C1941.13 312.729 1940.62 316.228 1940.11 319.812L1926.28 390.98C1925.77 394.393 1924.24 397.209 1921.68 399.428C1919.12 401.476 1916.13 402.5 1912.72 402.5H1884.3C1881.06 402.5 1878.24 401.647 1875.85 399.94C1873.46 398.063 1871.93 395.588 1871.24 392.516L1840.01 276.036H1878.16L1895.56 357.956C1896.25 361.369 1896.84 364.868 1897.36 368.452C1897.87 371.865 1898.29 375.279 1898.64 378.692H1901.96C1902.48 375.279 1902.99 371.865 1903.5 368.452C1904.18 364.868 1904.78 361.369 1905.29 357.956L1919.12 287.556C1919.63 284.143 1921.08 281.412 1923.47 279.364C1925.86 277.145 1928.84 276.036 1932.43 276.036H1957C1960.42 276.036 1963.32 277.145 1965.71 279.364C1968.27 281.412 1969.8 284.228 1970.32 287.812L1983.88 357.956C1984.4 361.369 1984.99 364.783 1985.68 368.196C1986.36 371.609 1986.96 375.108 1987.47 378.692H1990.54C1991.22 375.108 1991.73 371.695 1992.08 368.452C1992.59 365.039 1993.19 361.54 1993.87 357.956L2011.28 276.036H2049.42Z" fill="white"/>
</svg>
